<?xml version="1.0" standalone="no"?>
<!DOCTYPE svg PUBLIC "-//W3C//DTD SVG 20010904//EN"
 "http://www.w3.org/TR/2001/REC-SVG-20010904/DTD/svg10.dtd">
<svg version="1.0" xmlns="http://www.w3.org/2000/svg"
 width="626.000000pt" height="391.000000pt" viewBox="0 0 626.000000 391.000000"
 preserveAspectRatio="xMidYMid meet">

<g transform="translate(0.000000,391.000000) scale(0.100000,-0.100000)"
fill="#000000"  stroke="none">
<path d="M3790 3779 c-82 -34 -80 -99 7 -207 32 -39 37 -42 71 -37 152 25 180
91 84 196 -41 44 -53 51 -92 55 -25 2 -56 -1 -70 -7z"/>
<path d="M4001 3561 l-24 -24 49 -42 c48 -42 48 -42 52 -114 4 -63 6 -71 25
-71 19 0 19 4 13 76 -6 67 -12 83 -49 138 l-42 61 -24 -24z"/>
<path d="M3946 3277 c-35 -35 -33 -44 11 -39 42 5 63 -15 63 -59 0 -32 -32
-59 -68 -59 -20 0 -22 -3 -12 -15 7 -9 35 -15 78 -17 l65 -3 20 -57 c19 -58
19 -58 -2 -92 -12 -18 -21 -36 -21 -39 0 -4 105 -65 212 -124 9 -5 5 5 -57
152 l-46 110 32 27 33 28 -33 34 c-33 34 -34 36 -17 61 16 25 16 26 -15 65
-31 39 -34 40 -94 40 -35 0 -76 3 -93 6 -24 5 -36 1 -56 -19z"/>
<path d="M3870 3203 c-30 -9 -57 -17 -59 -19 -1 -1 4 -12 12 -24 8 -12 13 -30
10 -40 -5 -19 -3 -19 48 -4 102 30 128 54 99 89 -15 18 -39 18 -110 -2z"/>
<path d="M3764 3156 c-9 -25 0 -51 20 -54 26 -5 40 12 32 42 -7 29 -43 36 -52
12z"/>
<path d="M4400 3153 c-8 -4 -50 -33 -93 -66 -58 -44 -77 -63 -72 -75 3 -10 29
-73 57 -142 l50 -126 174 -123 c96 -67 174 -126 174 -130 0 -3 -30 -21 -66
-39 l-66 -33 38 -29 c22 -16 45 -30 51 -30 7 0 47 14 90 32 43 17 98 34 123
37 l46 6 -181 175 c-99 96 -178 176 -174 178 3 1 64 -20 135 -47 71 -27 138
-53 149 -57 11 -4 -26 40 -82 97 -72 74 -110 123 -133 169 -33 66 -123 175
-163 197 -24 13 -34 14 -57 6z m177 -302 c69 -21 119 -49 149 -82 13 -16 4
-12 -31 11 -27 19 -86 47 -130 61 -91 31 -82 39 12 10z m145 -330 c37 -25 65
-47 63 -50 -6 -5 -161 97 -177 117 -15 19 6 7 114 -67z"/>
<path d="M3440 3105 c-197 -53 -294 -92 -394 -159 -132 -88 -200 -158 -216
-224 -7 -29 -11 -55 -9 -56 11 -10 275 -126 286 -126 7 0 80 20 163 44 l151
44 193 -99 c182 -93 196 -102 237 -156 97 -125 103 -144 81 -266 l-16 -95 41
-138 c32 -111 44 -140 59 -142 11 -1 52 24 95 58 69 54 79 66 104 127 38 97
59 120 202 224 71 51 134 99 141 108 23 28 12 56 -61 158 -40 56 -97 153 -127
216 l-55 115 -189 101 c-156 85 -204 116 -281 185 -78 69 -103 86 -152 99 -80
23 -108 21 -253 -18z m291 -97 c65 -34 116 -64 114 -67 -3 -2 -61 23 -131 57
l-125 62 -87 -19 c-48 -11 -131 -33 -186 -50 -112 -35 -145 -39 -71 -10 88 36
279 88 324 89 35 0 68 -13 162 -62z m-799 -211 c-17 -18 -35 -47 -38 -65 -4
-18 -10 -34 -14 -37 -4 -2 -4 14 0 37 6 30 18 50 42 70 44 37 49 35 10 -5z
m1069 -471 c25 -33 29 -48 29 -101 0 -35 -7 -100 -16 -146 -10 -53 -14 -107
-10 -146 3 -35 3 -63 1 -63 -2 0 -9 25 -15 56 -10 45 -9 72 4 142 9 48 17 115
18 148 2 69 -4 82 -85 179 l-51 60 48 -45 c27 -25 61 -63 77 -84z"/>
<path d="M1202 3012 l-24 -18 174 -48 c95 -26 248 -72 340 -102 92 -30 175
-54 184 -54 8 0 79 -57 157 -127 216 -192 247 -209 514 -283 217 -60 227 -60
310 -15 82 46 213 135 213 145 0 4 -61 34 -135 68 -119 54 -138 60 -167 51
-69 -19 -181 -21 -276 -5 -176 31 -332 109 -491 246 l-83 72 -267 39 c-349 51
-419 56 -449 31z m666 -84 c29 -7 63 -29 106 -68 111 -100 207 -163 310 -201
43 -16 45 -18 16 -14 -82 13 -204 85 -330 195 -74 64 -76 65 -180 87 -104 22
-104 22 -35 17 39 -3 89 -10 113 -16z"/>
<path d="M1084 2967 c-8 -22 79 -160 114 -180 31 -18 32 -18 191 25 89 24 161
45 161 48 0 5 -437 121 -453 120 -4 0 -10 -6 -13 -13z"/>
<path d="M1580 2836 c0 -3 23 -17 51 -33 50 -27 53 -31 129 -184 l79 -156 117
-110 118 -111 102 -6 102 -7 143 -76 c155 -82 147 -81 277 -53 104 23 98 30
-186 199 -313 187 -431 270 -541 378 -84 82 -84 83 -180 109 -52 14 -108 32
-123 40 -25 13 -88 20 -88 10z m563 -379 c126 -97 175 -144 75 -71 -87 64
-308 236 -308 241 0 6 81 -53 233 -170z"/>
<path d="M1236 2747 l-290 -82 -79 -93 c-54 -63 -86 -92 -100 -92 -12 0 -28
-4 -36 -9 -8 -5 -43 -96 -77 -201 -34 -106 -59 -188 -55 -184 4 5 96 117 204
250 l197 240 223 42 c331 63 310 62 395 11 39 -23 94 -63 122 -87 27 -24 50
-42 50 -39 0 2 -27 60 -59 129 l-59 125 -65 37 c-36 20 -69 36 -74 35 -4 0
-138 -37 -297 -82z m-214 -92 c-30 -9 -61 -31 -99 -72 -56 -59 -54 -50 6 22
37 44 72 64 111 64 18 0 13 -4 -18 -14z"/>
<path d="M4445 2574 c49 -71 89 -130 89 -130 1 -1 27 11 58 26 l57 27 -137 99
c-75 54 -140 101 -145 103 -6 2 30 -54 78 -125z"/>
<path d="M4896 2618 c14 -25 108 -163 117 -173 5 -5 4 1 -3 15 -16 32 -111
170 -117 170 -2 0 -1 -6 3 -12z"/>
<path d="M3250 2552 c-112 -33 -131 -42 -169 -79 -55 -54 -134 -106 -224 -148
l-72 -33 -180 49 c-99 27 -184 49 -190 49 -5 0 76 -50 180 -110 105 -60 193
-110 197 -110 4 0 152 41 330 91 178 50 339 91 358 91 44 0 215 -74 254 -110
15 -15 56 -69 91 -120 71 -106 71 -106 81 33 l7 80 -61 81 c-71 96 -74 98
-264 197 -101 53 -158 77 -180 76 -18 0 -89 -17 -158 -37z"/>
<path d="M3367 2268 c-63 -27 -129 -62 -147 -77 l-34 -28 22 -31 c12 -17 44
-44 70 -60 45 -27 53 -29 102 -21 29 5 57 12 61 16 4 4 19 37 33 73 13 36 33
88 45 116 l20 52 -30 4 c-20 3 -65 -11 -142 -44z m21 -83 c2 -2 -17 -5 -43 -7
-38 -3 -43 -1 -29 9 14 10 59 9 72 -2z"/>
<path d="M3085 2224 c-245 -73 -283 -87 -305 -112 -20 -24 -38 -32 -97 -42
-39 -7 -77 -16 -84 -21 -9 -5 7 -29 53 -81 49 -55 70 -89 88 -140 23 -66 25
-69 144 -163 83 -66 122 -92 126 -83 4 7 26 84 50 170 l43 157 104 58 c56 32
103 60 103 64 0 3 -22 16 -49 29 -32 14 -61 38 -80 66 -17 23 -31 45 -31 48 0
11 106 72 173 101 65 27 80 36 55 34 -7 -1 -139 -39 -293 -85z m163 -209 c-13
-13 -168 -92 -168 -86 0 8 149 90 164 91 5 0 7 -2 4 -5z m-486 -90 c9 -11 25
-42 34 -70 25 -74 41 -101 82 -142 l37 -36 -45 35 c-37 29 -51 50 -80 121 -24
60 -49 101 -80 134 -42 44 -42 45 -6 13 22 -19 48 -44 58 -55z"/>
<path d="M3546 2257 c-109 -259 -108 -256 -97 -288 l11 -31 -38 4 c-31 4 -48
-3 -103 -38 -55 -35 -109 -93 -109 -117 0 -3 51 -25 113 -50 85 -34 131 -46
192 -51 44 -4 100 -9 125 -12 l45 -6 24 97 25 96 35 -6 36 -6 33 80 34 80 -77
113 -76 113 -80 27 -79 27 -14 -32z"/>
<path d="M4595 2247 c-6 -12 -24 -31 -42 -42 -18 -11 -32 -24 -32 -30 0 -25
167 -390 178 -390 7 0 69 -128 137 -285 69 -157 127 -287 129 -289 5 -4 65 18
77 28 4 4 -51 135 -122 291 -72 157 -128 291 -125 299 3 7 -36 104 -86 215
-113 248 -102 230 -114 203z m154 -369 c6 -16 8 -28 6 -28 -10 0 -146 291
-144 308 1 9 124 -242 138 -280z"/>
<path d="M2155 2161 l59 -61 31 30 c37 36 48 37 86 9 37 -26 37 -45 -1 -84
l-30 -31 24 -24 25 -23 50 22 c27 11 57 21 66 21 8 0 29 -21 45 -47 34 -53 29
-69 -27 -79 l-34 -6 23 -25 c39 -42 100 -71 181 -86 42 -8 77 -13 77 -11 0 22
-85 162 -133 221 -57 68 -72 79 -192 142 -103 55 -143 70 -190 76 -33 3 -73 9
-90 12 -29 5 -27 2 30 -56z"/>
<path d="M1315 2163 c-16 -3 -40 -17 -53 -31 -15 -17 -22 -21 -18 -9 8 25 -19
22 -100 -11 -47 -20 -70 -35 -72 -48 -5 -26 -22 -43 -22 -21 0 26 -14 21 -82
-31 -46 -35 -64 -55 -68 -77 -4 -21 -8 -26 -14 -17 -6 11 -14 8 -33 -10 -50
-47 -92 -113 -86 -136 4 -17 2 -21 -9 -17 -21 8 -72 -98 -72 -151 -1 -27 -5
-40 -12 -37 -7 3 -16 -20 -23 -60 -15 -87 -14 -117 6 -139 16 -18 16 -18 -2
-12 -17 7 -18 2 -12 -82 5 -76 9 -91 29 -106 19 -14 20 -18 6 -18 -16 0 -16
-4 1 -53 28 -81 48 -115 73 -123 20 -6 21 -8 5 -13 -16 -6 -12 -16 33 -79 39
-56 56 -72 75 -72 14 0 25 -4 25 -10 0 -5 -5 -10 -12 -10 -16 0 27 -45 84 -86
38 -28 52 -33 75 -28 25 7 27 6 14 -9 -12 -15 -5 -21 63 -53 66 -32 81 -35
102 -25 33 15 39 14 25 -3 -17 -20 -5 -25 89 -38 74 -11 83 -11 91 5 12 21 33
23 25 2 -4 -12 5 -15 47 -15 90 0 126 10 142 39 l14 26 1 -24 c0 -14 5 -21 13
-19 6 3 43 16 81 29 57 19 71 29 82 54 10 25 14 27 19 13 8 -21 25 -14 103 44
44 32 52 44 52 71 1 27 2 29 11 14 10 -18 11 -18 31 0 12 10 38 40 59 66 32
40 37 54 33 80 -5 29 -4 31 9 14 14 -17 17 -13 46 44 31 62 38 89 23 89 -4 0
-41 25 -82 55 -79 58 -90 63 -90 42 0 -7 -15 -44 -33 -82 -131 -273 -448 -411
-733 -321 -191 61 -339 209 -400 400 -35 113 -35 250 1 365 50 159 168 293
320 366 93 44 162 59 265 58 222 -1 418 -118 535 -318 10 -16 18 -14 103 21
50 22 92 44 92 50 0 5 -6 18 -13 28 -11 16 -16 14 -59 -19 -26 -20 -53 -35
-61 -33 -22 5 -246 280 -247 302 0 11 12 32 26 47 l26 27 -29 16 c-17 8 -53
24 -81 34 -44 17 -54 18 -69 6 -24 -18 -38 -18 -23 1 16 20 15 20 -48 34 -76
16 -122 14 -145 -6 -19 -17 -20 -17 -14 0 6 15 0 17 -51 16 -31 -1 -70 -4 -87
-6z"/>
<path d="M2175 2020 l-110 -110 -94 61 c-93 60 -94 60 -114 41 -19 -20 -19
-21 93 -156 99 -119 115 -135 129 -123 9 7 32 27 52 43 24 20 91 50 200 89 90
32 166 59 167 61 6 4 -31 64 -39 64 -3 0 -69 -27 -145 -59 -119 -51 -141 -57
-154 -45 -16 15 -13 19 109 146 63 65 64 68 46 83 -11 8 -22 15 -25 15 -3 0
-55 -49 -115 -110z"/>
<path d="M4777 2043 c-10 -3 -17 -12 -15 -21 4 -19 -6 -18 203 -7 66 4 138 3
160 -2 32 -8 15 -10 -80 -10 -66 0 -152 -5 -192 -12 l-71 -12 33 -72 c18 -40
33 -83 33 -97 0 -20 169 -405 198 -452 4 -6 14 2 24 18 15 26 16 48 9 218 l-9
190 -40 57 c-44 63 -49 79 -22 79 70 1 276 31 303 46 l34 17 -52 18 c-92 31
-230 49 -367 48 -72 -1 -139 -3 -149 -6z"/>
<path d="M3235 1964 c-49 -30 -96 -58 -102 -62 -7 -4 -25 -48 -39 -97 -14 -50
-32 -112 -40 -140 -16 -57 -13 -54 55 40 46 62 51 75 51 121 0 50 1 51 42 70
23 10 71 43 106 72 53 43 60 52 41 51 -13 0 -64 -25 -114 -55z"/>
<path d="M4500 1927 c-95 -75 -178 -183 -226 -296 -14 -31 -64 -170 -64 -177
0 -1 27 5 59 13 55 14 62 19 97 71 53 81 133 162 158 162 31 -1 59 -27 116
-110 37 -54 49 -81 45 -97 -3 -15 7 -48 31 -95 20 -40 38 -75 40 -77 2 -2 33
-10 68 -16 l65 -12 -23 51 c-134 303 -182 403 -191 400 -5 -2 -25 32 -44 76
-19 44 -39 80 -45 80 -19 0 -119 -87 -167 -146 -26 -31 -64 -85 -84 -120 -21
-35 -39 -64 -41 -64 -3 0 9 26 25 58 43 84 116 177 185 234 34 28 65 54 69 58
10 9 0 50 -11 50 -4 0 -32 -20 -62 -43z"/>
<path d="M3851 1898 l-22 -53 22 -18 c13 -10 18 -21 13 -26 -5 -4 -46 -38 -90
-75 l-82 -66 19 -62 c11 -34 28 -76 39 -94 l20 -32 -44 -83 c-37 -68 -51 -86
-78 -96 l-33 -12 49 2 48 2 124 213 c68 117 124 220 124 228 0 8 -12 62 -26
119 -32 126 -48 136 -83 53z"/>
<path d="M5307 1924 c-15 -8 -79 -20 -143 -26 -63 -6 -113 -16 -111 -21 1 -5
36 -19 77 -31 104 -30 192 -80 259 -146 141 -138 203 -327 168 -512 -29 -161
-114 -293 -247 -383 -108 -74 -197 -100 -330 -99 -168 2 -292 54 -411 175
-190 191 -221 495 -73 717 24 35 37 62 29 62 -19 0 -85 -76 -128 -147 -31 -51
-45 -64 -75 -73 -20 -5 -43 -10 -50 -10 -31 0 -47 -155 -17 -166 8 -4 15 -10
15 -15 0 -4 -7 -6 -15 -3 -33 13 -8 -140 28 -168 18 -15 19 -18 5 -18 -15 0
-16 -4 -4 -37 27 -77 50 -114 73 -119 17 -5 21 -10 14 -18 -12 -14 4 -42 52
-94 22 -22 40 -32 61 -32 28 -1 29 -2 14 -14 -16 -12 -16 -14 5 -33 53 -49
104 -74 133 -67 26 7 28 6 16 -9 -12 -14 -10 -18 15 -30 57 -30 108 -40 132
-27 19 10 22 9 19 -7 -4 -20 29 -30 108 -32 38 -1 53 3 58 14 3 8 10 15 15 15
6 0 8 -7 4 -17 -10 -26 126 -11 149 17 19 24 30 26 22 5 -8 -20 -7 -19 75 11
53 19 71 31 71 45 0 10 5 21 10 24 6 3 10 -1 10 -9 0 -22 4 -21 71 24 47 33
59 46 59 68 0 21 2 24 10 12 8 -12 19 -6 61 38 45 47 51 57 45 84 -5 27 -4 29
10 17 19 -15 23 -10 61 69 21 45 23 58 14 79 -10 22 -9 24 9 18 11 -3 20 -5
20 -3 0 2 7 34 15 73 14 68 14 70 -8 94 l-22 24 23 -6 c21 -5 22 -3 22 74 0
68 -3 81 -20 91 -23 15 -27 30 -5 22 20 -8 19 1 -5 79 -17 55 -24 66 -48 73
-20 5 -23 8 -9 11 25 6 21 21 -23 91 -29 46 -45 62 -62 62 -19 0 -20 2 -8 10
12 8 4 21 -48 71 -50 49 -67 60 -87 57 -25 -5 -35 7 -12 15 7 2 -3 13 -23 25
-41 26 -37 25 -73 6z"/>
<path d="M1316 1914 c-187 -45 -345 -196 -412 -394 -26 -77 -26 -253 0 -330
64 -190 195 -321 386 -386 87 -30 263 -26 352 8 97 37 173 85 232 149 55 59
118 169 134 234 22 90 23 95 9 95 -9 0 -17 -17 -21 -47 -3 -26 -24 -84 -46
-129 -74 -154 -216 -263 -385 -299 -88 -18 -132 -18 -220 0 -110 23 -189 68
-276 154 -194 194 -221 467 -70 693 195 292 608 329 851 77 31 -31 64 -73 75
-93 11 -20 25 -36 32 -36 19 0 17 6 -23 66 -130 195 -386 294 -618 238z"/>
<path d="M2395 1823 c-16 -26 -25 -48 -20 -50 6 -2 71 -32 145 -67 l135 -64
49 41 49 41 -89 21 c-103 24 -122 33 -186 86 -26 22 -48 39 -50 39 -2 0 -16
-21 -33 -47z"/>
<path d="M5094 1811 c3 -4 32 -18 64 -29 368 -134 471 -591 197 -868 -99 -101
-228 -154 -370 -154 -145 0 -272 53 -375 159 -104 106 -150 218 -150 369 0 97
32 207 81 279 16 24 29 48 29 54 0 22 -20 6 -48 -38 -117 -183 -114 -430 6
-605 190 -277 582 -323 826 -98 119 110 176 241 176 405 0 194 -88 358 -248
462 -72 46 -205 92 -188 64z"/>
<path d="M3108 1659 c-43 -54 -78 -106 -78 -115 0 -20 57 -224 69 -244 4 -8
73 -32 162 -56 l154 -41 125 62 125 63 38 77 38 77 -57 71 c-31 40 -63 77 -71
83 -7 6 -50 15 -96 18 -62 6 -108 18 -192 51 -60 24 -117 46 -125 49 -10 3
-40 -27 -92 -95z m64 -76 c-6 -52 23 -102 73 -124 30 -14 36 -19 23 -24 -30
-12 -88 15 -109 49 -22 35 -24 74 -7 111 16 36 25 31 20 -12z m362 -35 c9 -12
16 -34 15 -48 0 -15 -3 -19 -6 -10 -13 34 -47 60 -80 60 -20 0 -32 4 -28 10 3
6 24 10 45 10 29 0 43 -6 54 -22z"/>
<path d="M2455 1560 l95 -190 40 0 c43 0 60 -12 195 -141 60 -58 155 -110 155
-86 0 7 14 95 30 197 23 143 26 187 17 196 -7 6 -58 47 -113 92 l-101 81 -56
-50 -56 -49 -147 70 c-81 38 -149 70 -151 70 -2 0 40 -85 92 -190z m381 -96
c14 -9 24 -25 23 -38 0 -14 -2 -16 -6 -6 -3 8 -16 25 -30 36 -21 18 -26 33
-29 75 l-3 54 10 -53 c8 -38 18 -57 35 -68z m-151 -34 c-33 -10 -69 -21 -79
-26 -13 -5 -17 -4 -12 4 8 14 91 41 126 41 14 0 -1 -9 -35 -19z"/>
<path d="M2010 1589 l-305 -131 -229 -29 c-126 -16 -230 -30 -232 -31 -4 -4
15 -150 20 -155 13 -13 1206 145 1224 162 7 6 -153 315 -163 315 -5 0 -147
-59 -315 -131z m227 50 c-33 -19 -370 -160 -373 -156 -4 4 87 45 266 121 100
43 145 57 107 35z m-682 -239 c-22 -5 -78 -11 -125 -14 l-85 -5 80 13 c44 8
100 14 125 14 l45 0 -40 -8z"/>
<path d="M4013 1698 c-23 -13 -33 -28 -33 -44 0 -13 -22 -84 -48 -157 -45
-126 -53 -140 -137 -245 -63 -81 -100 -117 -130 -132 -59 -29 -109 -26 -164
10 -37 23 -90 39 -254 75 -115 25 -218 47 -231 51 -21 5 -23 0 -35 -85 -8 -50
-15 -91 -17 -91 -2 0 -36 15 -76 33 -62 29 -86 48 -161 128 l-87 94 -105 16
c-86 13 -105 13 -105 2 0 -10 -24 -13 -105 -13 l-105 0 -85 -52 c-47 -29 -85
-55 -85 -58 1 -18 168 -124 236 -149 43 -16 87 -32 96 -36 9 -4 20 -20 23 -35
6 -26 11 -29 58 -34 29 -3 257 -8 507 -11 l456 -6 78 35 c43 20 95 36 115 36
83 1 150 53 267 210 58 78 69 99 119 250 50 151 67 231 48 229 -5 0 -23 -10
-40 -21z m-1258 -658 c110 -7 202 -14 204 -16 7 -7 -159 -4 -293 6 -108 8
-135 13 -170 34 -76 45 -82 57 -11 22 69 -35 72 -35 270 -46z"/>
<path d="M1393 1660 c-86 -18 -177 -89 -219 -170 -26 -51 -31 -174 -10 -238
21 -61 81 -133 144 -170 43 -25 56 -27 147 -27 113 0 150 13 218 80 30 29 77
101 77 118 0 2 -24 2 -52 -1 -44 -4 -57 -10 -80 -37 -15 -18 -51 -42 -80 -55
-64 -28 -130 -23 -193 15 -24 14 -54 25 -67 25 -49 0 -68 11 -62 35 3 12 1 55
-5 95 -11 83 -8 98 24 106 13 3 35 23 49 44 29 45 113 90 166 90 51 0 98 -17
142 -51 37 -29 62 -34 106 -23 29 8 28 19 -9 65 -58 73 -196 119 -296 99z m67
-40 c0 -5 -4 -10 -10 -10 -5 0 -10 5 -10 10 0 6 5 10 10 10 6 0 10 -4 10 -10z
m-70 -10 c0 -5 -4 -10 -10 -10 -5 0 -10 5 -10 10 0 6 5 10 10 10 6 0 10 -4 10
-10z m140 0 c0 -5 -4 -10 -10 -10 -5 0 -10 5 -10 10 0 6 5 10 10 10 6 0 10 -4
10 -10z m-206 -31 c-3 -5 -10 -7 -15 -3 -5 3 -7 10 -3 15 3 5 10 7 15 3 5 -3
7 -10 3 -15z m266 1 c0 -5 -2 -10 -4 -10 -3 0 -8 5 -11 10 -3 6 -1 10 4 10 6
0 11 -4 11 -10z m-320 -40 c0 -5 -4 -10 -10 -10 -5 0 -10 5 -10 10 0 6 5 10
10 10 6 0 10 -4 10 -10z m380 6 c0 -11 -19 -15 -25 -6 -3 5 1 10 9 10 9 0 16
-2 16 -4z m-420 -56 c0 -5 -4 -10 -10 -10 -5 0 -10 5 -10 10 0 6 5 10 10 10 6
0 10 -4 10 -10z m-30 -70 c0 -5 -2 -10 -4 -10 -3 0 -8 5 -11 10 -3 6 -1 10 4
10 6 0 11 -4 11 -10z m-10 -66 c0 -8 -5 -12 -10 -9 -6 4 -8 11 -5 16 9 14 15
11 15 -7z m10 -64 c0 -5 -4 -10 -10 -10 -5 0 -10 5 -10 10 0 6 5 10 10 10 6 0
10 -4 10 -10z m490 -70 c0 -5 -4 -10 -10 -10 -5 0 -10 5 -10 10 0 6 5 10 10
10 6 0 10 -4 10 -10z m-420 -50 c0 -5 -4 -10 -10 -10 -5 0 -10 5 -10 10 0 6 5
10 10 10 6 0 10 -4 10 -10z m375 0 c3 -5 1 -10 -4 -10 -6 0 -11 5 -11 10 0 6
2 10 4 10 3 0 8 -4 11 -10z m-321 -51 c-3 -5 -10 -7 -15 -3 -5 3 -7 10 -3 15
3 5 10 7 15 3 5 -3 7 -10 3 -15z m266 11 c0 -5 -4 -10 -10 -10 -5 0 -10 5 -10
10 0 6 5 10 10 10 6 0 10 -4 10 -10z m-200 -30 c0 -5 -4 -10 -10 -10 -5 0 -10
5 -10 10 0 6 5 10 10 10 6 0 10 -4 10 -10z m140 0 c0 -5 -4 -10 -10 -10 -5 0
-10 5 -10 10 0 6 5 10 10 10 6 0 10 -4 10 -10z m-70 -10 c0 -5 -4 -10 -10 -10
-5 0 -10 5 -10 10 0 6 5 10 10 10 6 0 10 -4 10 -10z"/>
<path d="M5121 1514 c2 -49 7 -64 30 -89 86 -93 76 -234 -22 -319 -133 -113
-331 -39 -364 137 -4 20 -13 37 -19 37 -7 0 -23 23 -36 50 -32 68 -45 52 -45
-53 1 -61 6 -94 22 -129 30 -66 96 -133 162 -165 79 -39 191 -40 272 -2 190
89 248 328 121 494 -21 26 -56 59 -80 72 l-42 25 1 -58z m59 -64 c0 -5 -2 -10
-4 -10 -3 0 -8 5 -11 10 -3 6 -1 10 4 10 6 0 11 -4 11 -10z m45 -50 c3 -5 1
-10 -4 -10 -6 0 -11 5 -11 10 0 6 2 10 4 10 3 0 8 -4 11 -10z m25 -70 c0 -5
-4 -10 -10 -10 -5 0 -10 5 -10 10 0 6 5 10 10 10 6 0 10 -4 10 -10z m-520 -70
c0 -5 -4 -10 -10 -10 -5 0 -10 5 -10 10 0 6 5 10 10 10 6 0 10 -4 10 -10z
m530 0 c0 -5 -2 -10 -4 -10 -3 0 -8 5 -11 10 -3 6 -1 10 4 10 6 0 11 -4 11
-10z m-520 -70 c0 -5 -4 -10 -10 -10 -5 0 -10 5 -10 10 0 6 5 10 10 10 6 0 10
-4 10 -10z m510 0 c0 -5 -2 -10 -4 -10 -3 0 -8 5 -11 10 -3 6 -1 10 4 10 6 0
11 -4 11 -10z m-485 -60 c3 -5 1 -10 -4 -10 -6 0 -11 5 -11 10 0 6 2 10 4 10
3 0 8 -4 11 -10z m465 0 c0 -5 -4 -10 -10 -10 -5 0 -10 5 -10 10 0 6 5 10 10
10 6 0 10 -4 10 -10z m-420 -54 c0 -3 -4 -8 -10 -11 -5 -3 -10 -1 -10 4 0 6 5
11 10 11 6 0 10 -2 10 -4z m380 0 c0 -11 -19 -15 -25 -6 -3 5 1 10 9 10 9 0
16 -2 16 -4z m-330 -46 c0 -5 -4 -10 -10 -10 -5 0 -10 5 -10 10 0 6 5 10 10
10 6 0 10 -4 10 -10z m270 0 c0 -5 -4 -10 -10 -10 -5 0 -10 5 -10 10 0 6 5 10
10 10 6 0 10 -4 10 -10z m-205 -19 c3 -5 1 -12 -5 -16 -5 -3 -10 1 -10 9 0 18
6 21 15 7z m139 -12 c-3 -5 -10 -7 -15 -3 -5 3 -7 10 -3 15 3 5 10 7 15 3 5
-3 7 -10 3 -15z m-69 1 c3 -5 1 -10 -4 -10 -6 0 -11 5 -11 10 0 6 2 10 4 10 3
0 8 -4 11 -10z"/>
<path d="M2065 1289 c-11 -17 -2 -18 19 -3 17 12 17 14 4 14 -9 0 -20 -5 -23
-11z"/>
</g>
</svg>
